HIERARCHY
ROOT Hips
{
	OFFSET 0.000000 0.000000 0.000000 
	CHANNELS 6 Xposition Yposition Zposition Yrotation Zrotation Xrotation 
	JOINT Lumbar
	{
		OFFSET 0.000000 0.000000 0.000000 
		CHANNELS 3 Zrotation Xrotation Yrotation
		JOINT Neck
		{
			OFFSET 0.000000 0.445665 0.000000 
			CHANNELS 3 Zrotation Xrotation Yrotation
			End Site
			{
				OFFSET 0.000000 0.227535 0.000000 
			}
		}
		JOINT RightShoulder
		{
			OFFSET 0.019635 0.377685 0.194865 
			CHANNELS 3 Zrotation Xrotation Yrotation
			JOINT RightElbow
			{
				OFFSET 0.000000 -0.243375 0.000000 
				CHANNELS 2 Zrotation Yrotation
				JOINT RightWrist
				{
					OFFSET 0.000000 -0.264825 0.000000 
					CHANNELS 2 Zrotation Xrotation
					End Site
					{
						OFFSET 0.006600 -0.176220 0.000990 
					}
				}
			}
		}
		JOINT LeftShoulder
		{
			OFFSET 0.019635 0.377685 -0.194865 
			CHANNELS 3 Zrotation Xrotation Yrotation
			JOINT LeftElbow
			{
				OFFSET 0.000000 -0.243375 0.000000 
				CHANNELS 2 Zrotation Yrotation
				JOINT LeftWrist
				{
					OFFSET 0.000000 -0.264825 0.000000 
					CHANNELS 2 Zrotation Xrotation
					End Site
					{
						OFFSET 0.006600 -0.176220 -0.000990 
					}
				}
			}
		}
	}
	JOINT RightHip
	{
		OFFSET 0.052140 -0.069960 0.075570 
		CHANNELS 3 Zrotation Xrotation Yrotation
		JOINT RightKnee
		{
			OFFSET 0.000000 -0.402270 0.000000 
			CHANNELS 1 Zrotation
			JOINT RightAnkle
			{
				OFFSET 0.000000 -0.404085 0.000000 
				CHANNELS 3 Zrotation Xrotation Yrotation
				End Site
				{
					OFFSET 0.204105 -0.089430 0.008415 
				}
			}
		}
	}
	JOINT LeftHip
	{
		OFFSET 0.052140 -0.069960 -0.075570 
		CHANNELS 3 Zrotation Xrotation Yrotation
		JOINT LeftKnee
		{
			OFFSET 0.000000 -0.402270 0.000000 
			CHANNELS 1 Zrotation
			JOINT LeftAnkle
			{
				OFFSET 0.000000 -0.404085 0.000000 
				CHANNELS 3 Zrotation Xrotation Yrotation
				End Site
				{
					OFFSET 0.204105 -0.089430 -0.008415 
				}
			}
		}
	}
}
MOTION
Frames: 19
Frame Time: 0.02
-0.22032 0.00703 0.29884 -270.05359 -29.55915 0.29769 33.74967 1.39875 -2.41208 -5.76473 -6.7909 -2.11993 -35.19677 -10.02758 -24.17018 48.27141 87.34252 2.95217 0.85177 -6.13941 11.88184 2.19759 122.04303 -83.61986 4.7578 1.73406 35.11345 -5.58922 -5.75095 -21.1246 -7.06086 -1.06668 -2.78353 48.16898 5.06272 8.47032 -37.8242 -7.86262 1.84183 3.19521
-0.22326 0.00723 0.2949 -272.02718 -29.6526 0.3685 33.58315 1.55289 -2.79784 -5.69206 -6.92548 -2.11993 -33.12557 -10.56538 -23.3149 48.40462 86.72895 2.79752 0.6939 -6.19779 11.66714 1.85786 122.18048 -83.59061 4.97323 1.39558 35.36003 -5.80526 -4.9047 -21.20119 -7.09298 -0.9652 -2.73677 47.65337 4.57143 8.84348 -35.49805 -7.81249 1.76049 3.15212
-0.2264 0.00678 0.29017 -274.03824 -29.6471 0.32092 33.53506 1.70265 -3.46326 -5.77169 -6.8566 -2.11993 -30.54347 -10.9614 -22.71825 48.06477 87.02743 2.83033 0.75778 -6.42893 11.30576 1.72243 122.34884 -83.6612 5.26147 0.93471 35.56853 -5.95545 -4.03651 -21.48485 -7.10399 -0.87686 -2.69566 46.8681 4.12079 8.64922 -33.67121 -7.82537 1.74438 3.14428
-0.22948 0.00659 0.28584 -275.99152 -29.68635 0.34014 33.43759 1.83857 -4.01852 -5.78248 -6.87302 -2.11993 -28.23127 -11.39572 -22.0093 47.96091 86.85855 2.75543 0.71072 -6.55035 11.02726 1.48313 122.50082 -83.69764 5.50102 0.54966 35.82373 -6.14554 -3.17601 -21.73487 -7.12354 -0.78601 -2.65357 46.21404 3.6528 8.74693 -31.64867 -7.80628 1.69838 3.12018
-0.23248 0.00656 0.28132 -278.12174 -29.72947 0.30859 33.32715 2.03993 -4.50998 -5.7942 -6.92719 -2.11993 -25.75372 -11.94368 -21.2548 47.79591 86.83977 2.75464 0.69048 -6.81545 10.67577 1.30073 122.66457 -83.7099 5.80973 0.07286 35.96027 -6.29665 -2.30667 -21.73384 -7.14824 -0.68114 -2.60507 45.51111 3.1823 8.72173 -29.45762 -7.80271 1.65217 3.09652
-0.23567 0.00604 0.27701 -279.8894 -29.73814 0.35038 33.268 2.10529 -5.19485 -5.83977 -6.84803 -2.11993 -23.50688 -12.21964 -20.66785 47.63059 86.75393 2.65292 0.67291 -6.81647 10.44187 1.04252 122.8145 -83.77954 5.99132 -0.23757 36.32848 -6.50998 -1.46249 -22.29876 -7.157 -0.6086 -2.57128 44.84832 2.72884 8.80817 -27.7497 -7.7816 1.6221 3.08043
-0.23941 0.00425 0.27349 -280.65868 -29.69823 0.65697 33.34245 1.78613 -6.38119 -5.93465 -6.49287 -2.11993 -21.95677 -11.7842 -20.45397 47.63669 86.2491 2.21527 0.61278 -6.06162 10.58432 0.54767 122.86772 -84.06658 5.7999 -0.08 37.39965 -6.93827 -0.63328 -24.42984 -7.12606 -0.61905 -2.57528 44.39244 2.27517 9.35892 -27.26134 -7.69192 1.62415 3.07806
-0.24331 0.00199 0.27021 -281.05871 -29.62336 1.03502 33.4605 1.33233 -7.74481 -6.05919 -6.00173 -2.11993 -20.6686 -11.07909 -20.40837 47.64389 85.65754 1.67403 0.54931 -5.03092 10.84756 -0.03593 122.91419 -84.38155 5.48302 0.25469 38.69507 -7.42676 0.15676 -27.11189 -7.07984 -0.66204 -2.59411 43.9836 1.84338 10.03467 -27.24606 -7.58302 1.63988 3.08196
-0.24708 0 0.26683 -281.61988 -29.54893 1.35846 33.54362 0.94665 -9.00368 -6.17423 -5.54504 -2.11993 -19.3035 -10.49309 -20.30508 47.61185 85.12301 1.19119 0.48682 -4.11437 11.0467 -0.59493 122.99668 -84.63814 5.21959 0.52183 39.85246 -7.8693 0.92372 -29.50827 -7.04111 -0.69198 -2.60704 43.53458 1.42519 10.64038 -27.01421 -7.48571 1.64713 3.08205
-0.25115 -0.00224 0.26339 -282.21193 -29.53378 1.77153 33.69256 0.53097 -10.3762 -6.27782 -5.1984 -2.11993 -17.74317 -9.91461 -20.12824 47.73212 84.5447 0.66884 0.43378 -3.25012 11.28162 -1.08022 122.94269 -85.12732 4.95407 0.72645 41.16129 -8.3862 1.86461 -32.06691 -6.99947 -0.71496 -2.61664 43.1519 0.9091 11.28649 -26.80488 -7.37854 1.66568 3.08722
-0.25459 -0.00405 0.26015 -282.64979 -29.39128 2.01603 33.71595 0.14658 -11.5483 -6.41032 -4.59087 -2.11993 -16.65786 -9.26093 -20.14485 47.53538 84.02528 0.19918 0.35777 -2.21072 11.46991 -1.7428 123.16917 -85.09226 4.68695 1.10941 42.20812 -8.76572 2.43318 -34.40807 -6.96039 -0.76007 -2.63664 42.64999 0.60161 11.88049 -26.65572 -7.28658 1.66371 3.08312
-0.25638 -0.00462 0.25741 -282.76504 -28.87926 1.78176 33.35782 -0.1246 -12.14049 -6.61441 -3.31522 -2.11993 -16.82738 -8.44301 -20.62533 46.51816 83.68945 -0.07727 0.21613 -0.74203 11.52508 -2.87218 124.18559 -84.00077 4.22986 1.90268 42.47838 -8.7316 1.98776 -36.07658 -6.93358 -0.85755 -2.68142 41.77331 0.86431 12.3444 -26.54739 -7.24034 1.59628 3.04932
-0.2575 -0.00473 0.25489 -282.73467 -28.24576 1.37545 32.87588 -0.35843 -12.52049 -6.84588 -1.78005 -2.11993 -17.4672 -7.56348 -21.30003 45.17508 83.41187 -0.30231 0.05117 0.89052 11.52585 -4.17642 125.48087 -82.31569 3.813 2.87601 42.47636 -8.56134 1.16941 -37.49321 -6.90983 -0.97623 -2.73619 40.78298 1.33601 12.74606 -26.4829 -7.20995 1.50837 3.00627
-0.25883 -0.00503 0.25229 -282.76306 -27.68563 1.04546 32.46568 -0.60541 -12.98488 -7.06479 -0.35109 -2.11993 -17.88945 -6.72785 -21.90226 43.9458 83.10299 -0.5662 -0.10244 2.44204 11.53492 -5.40452 126.64043 -80.62836 3.52229 3.79444 42.599 -8.46633 0.51692 -38.98457 -6.88368 -1.08565 -2.78656 39.86817 1.71219 13.14992 -26.40195 -7.17261 1.43314 2.969
-0.26056 -0.00544 0.24961 -282.81227 -27.04732 0.72476 31.99117 -0.87348 -13.50569 -7.28571 1.0369 -2.11993 -18.33645 -5.81624 -22.43919 42.8561 82.81073 -0.76757 -0.25999 4.03624 11.61472 -6.62863 127.84144 -80.05016 2.62766 4.61006 42.72861 -8.31606 -0.12737 -40.66816 -6.86077 -1.19472 -2.83686 38.8532 2.09165 13.66797 -26.3223 -7.1335 1.3444 2.92542
-0.2613 -0.00549 0.24713 -282.78538 -26.54373 0.34418 31.62136 -1.08668 -13.85725 -7.50809 2.56542 -2.11993 -18.8406 -5.05097 -23.16184 41.40455 82.50034 -1.08643 -0.4139 5.57002 11.53612 -7.89254 129.01777 -77.07102 2.9893 5.67429 42.77229 -8.24881 -0.86963 -41.87793 -6.83263 -1.30903 -2.88947 38.02032 2.51337 13.9318 -26.24524 -7.10215 1.27849 2.89259
-0.25951 -0.00465 0.24517 -282.6112 -26.44055 -0.17046 31.56479 -1.15965 -13.78269 -7.73147 4.4567 -2.11993 -19.38437 -4.71352 -24.29615 38.98276 82.11008 -1.73388 -0.56069 6.95435 11.00467 -9.29774 130.09767 -67.17224 6.91686 7.43133 42.67738 -8.43496 -1.85189 -41.89331 -6.78423 -1.43303 -2.94592 37.71011 3.00274 13.50875 -26.15244 -7.08798 1.28285 2.8926
-0.25673 -0.00347 0.24339 -282.3624 -26.47785 -0.73767 31.6192 -1.17772 -13.54592 -7.95472 6.47203 -2.11993 -19.96896 -4.5252 -25.61774 36.21928 81.70238 -2.50145 -0.70158 8.25986 10.32092 -10.72117 131.1358 -54.95922 12.08475 9.42153 42.49866 -8.7106 -2.90794 -41.42863 -6.7315 -1.56118 -3.00419 37.58877 3.52704 12.83128 -26.06065 -7.08124 1.31043 2.90356
-0.25436 -0.00245 0.24152 -282.13156 -26.45154 -1.2742 31.62604 -1.2187 -13.38983 -8.17517 8.40552 -2.11993 -20.53531 -4.26437 -26.89051 33.64342 81.31372 -3.22028 -0.83931 9.56271 9.72458 -12.08917 132.1667 -44.0903 16.61955 11.27177 42.33567 -8.95115 -3.89074 -41.14574 -6.6841 -1.6872 -3.06168 37.38545 4.0337 12.27001 -25.97383 -7.07143 1.32585 2.90889
